Coordinates
version=1
nRows=14
nColumns=40
inDegrees=yes

Units are S.I. units (second, meters, Newtons, ...)
If the header above contains a line with 'inDegrees', this indicates whether rotational values are in degrees (yes) or radians (no).

endheader
time	pelvis_tilt	pelvis_list	pelvis_rotation	pelvis_tx	pelvis_ty	pelvis_tz	hip_flexion_r	hip_adduction_r	hip_rotation_r	knee_angle_r	knee_angle_r_beta	ankle_angle_r	subtalar_angle_r	mtp_angle_r	hip_flexion_l	hip_adduction_l	hip_rotation_l	knee_angle_l	knee_angle_l_beta	ankle_angle_l	subtalar_angle_l	mtp_angle_l	lumbar_extension	lumbar_bending	lumbar_rotation	arm_flex_r	arm_add_r	arm_rot_r	elbow_flex_r	pro_sup_r	wrist_flex_r	wrist_dev_r	arm_flex_l	arm_add_l	arm_rot_l	elbow_flex_l	pro_sup_l	wrist_flex_l	wrist_dev_l
      2.70000000	    -19.88009925	     -5.49611474	     -0.31369082	     -0.31495110	      0.82695575	     -0.97991445	     26.08280764	     -6.89231367	      9.47684344	     89.20406431	      1.55690463	    -21.26759324	      0.00000000	      0.00000000	     60.13738734	     -6.89056611	     -3.66734039	     69.61531436	      1.21501645	     16.17644722	      0.00000000	      0.00000000	     -9.89567552	     -6.73323441	      9.60423206	     71.86190719	     -7.15011541	     22.15650382	     81.79718295	     74.92821710	      0.00000000	      0.00000000	     79.40267896	    -15.21424901	     36.50721087	     79.89150189	     69.15984247	      0.00000000	      0.00000000
      2.70500000	    -20.01247013	     -5.45735440	     -0.28579723	     -0.31548566	      0.82595550	     -0.97981779	     26.26953665	     -6.91050593	      9.50614954	     89.33246893	      1.55914571	    -21.38023159	      0.00000000	      0.00000000	     60.50128740	     -6.78773187	     -3.54117544	     69.95482885	      1.22094209	     16.10068016	      0.00000000	      0.00000000	     -9.89155980	     -6.77846318	      9.48058845	     72.09507490	     -7.07320421	     22.15440772	     81.45806450	     77.97305797	      0.00000000	      0.00000000	     79.47933230	    -15.36729107	     36.40463273	     79.78137944	     71.92713853	      0.00000000	      0.00000000
      2.71000000	    -20.09553890	     -5.40257041	     -0.26365898	     -0.31570360	      0.82485895	     -0.97975462	     26.33907181	     -6.99180059	      9.45773106	     89.34710799	      1.55940121	    -21.49747858	      0.00000000	      0.00000000	     60.69280714	     -6.69513093	     -3.53152292	     70.12616255	      1.22393243	     16.32927796	      0.00000000	      0.00000000	     -9.90861178	     -6.84630409	      9.45570903	     72.12502081	     -7.10005564	     22.22604511	     81.55057463	     75.92932851	      0.00000000	      0.00000000	     79.53265616	    -15.38819882	     36.57389150	     79.86341305	     70.04875483	      0.00000000	      0.00000000
      2.71500000	    -20.18538051	     -5.37308234	     -0.30659777	     -0.31604119	      0.82377444	     -0.97957476	     26.46753544	     -6.97482460	      9.57193157	     89.48553500	      1.56181722	    -21.37337318	      0.00000000	      0.00000000	     60.92685548	     -6.68811637	     -3.49657402	     70.36498748	      1.22810071	     16.41189947	      0.00000000	      0.00000000	     -9.91679462	     -6.90301614	      9.49539395	     72.22367070	     -7.10658475	     22.40234155	     81.60782200	     74.12660455	      0.00000000	      0.00000000	     79.61443945	    -15.39087356	     36.70356503	     79.93031953	     68.31384392	      0.00000000	      0.00000000
      2.72000000	    -20.19102877	     -5.33008143	     -0.27407463	     -0.31638180	      0.82288197	     -0.97957358	     26.47357269	     -7.03674061	      9.53587445	     89.53317179	      1.56264864	    -21.46446227	      0.00000000	      0.00000000	     61.04674014	     -6.59081635	     -3.44184592	     70.52279976	      1.23085505	     16.56007226	      0.00000000	      0.00000000	    -10.04707877	     -6.96123450	      9.48610702	     72.28946075	     -7.12750368	     22.19264095	     81.49955908	     77.92102706	      0.00000000	      0.00000000	     79.70054145	    -15.28057832	     36.39424362	     79.64280380	     71.96567194	      0.00000000	      0.00000000
      2.72500000	    -20.35369171	     -5.38618939	     -0.25103461	     -0.31679279	      0.82181978	     -0.97934795	     26.62441607	     -6.86194095	      9.58468629	     89.66632067	      1.56497252	    -21.15651481	      0.00000000	      0.00000000	     61.40346805	     -6.56914322	     -3.27946224	     70.75129586	      1.23484306	     16.50160956	      0.00000000	      0.00000000	    -10.00956066	     -6.89876895	      9.44248869	     72.45833068	     -7.14630739	     22.49617546	     81.56204272	     74.82272233	      0.00000000	      0.00000000	     79.70929311	    -15.38227565	     36.47295188	     79.91881658	     69.46162539	      0.00000000	      0.00000000
      2.73000000	    -20.38567465	     -5.27214630	     -0.23745494	     -0.31720982	      0.82093657	     -0.97930371	     26.73796377	     -7.04920316	      9.56537748	     89.74146116	      1.56628397	    -21.52519721	      0.00000000	      0.00000000	     61.52287086	     -6.47819069	     -3.36569377	     70.87265823	      1.23696124	     16.66728881	      0.00000000	      0.00000000	    -10.10191689	     -7.05156298	      9.44490616	     72.49996404	     -7.11165078	     22.20424450	     81.45654507	     77.56639074	      0.00000000	      0.00000000	     79.85029196	    -15.26636645	     36.35143759	     79.63548112	     71.91632561	      0.00000000	      0.00000000
      2.73500000	    -20.42373226	     -5.26164785	     -0.20068054	     -0.31743288	      0.82006121	     -0.97936653	     26.71370681	     -7.03135587	      9.61188600	     89.69571935	      1.56548563	    -21.56720389	      0.00000000	      0.00000000	     61.67709942	     -6.39384000	     -3.27557346	     71.03069297	      1.23971946	     16.76667002	      0.00000000	      0.00000000	    -10.18897013	     -7.05664838	      9.43356305	     72.58753209	     -7.16252766	     22.25362435	     81.44695438	     78.01188691	      0.00000000	      0.00000000	     79.88922603	    -15.19905279	     36.30012948	     79.56209802	     72.10701368	      0.00000000	      0.00000000
      2.74000000	    -20.46214835	     -5.24776344	     -0.15612624	     -0.31784557	      0.81922571	     -0.97924554	     26.72147636	     -7.02343784	      9.60789103	     89.68087914	      1.56522662	    -21.47370140	      0.00000000	      0.00000000	     61.81135564	     -6.35938988	     -3.26997188	     71.08088184	      1.24059542	     16.75857916	      0.00000000	      0.00000000	    -10.29269430	     -7.07819517	      9.41242606	     72.64087890	     -7.13223128	     22.19450101	     81.45565403	     77.83480518	      0.00000000	      0.00000000	     79.93258018	    -15.14245892	     36.18183948	     79.58972879	     71.97206561	      0.00000000	      0.00000000
      2.74500000	    -20.56537206	     -5.28871512	     -0.10919649	     -0.31829502	      0.81808269	     -0.97919633	     26.87004428	     -6.99817909	      9.53158827	     89.81999954	      1.56765473	    -21.59195888	      0.00000000	      0.00000000	     62.08151274	     -6.28616231	     -3.12092403	     71.36639230	      1.24557852	     17.10722912	      0.00000000	      0.00000000	    -10.29302010	     -7.03980552	      9.36459684	     72.78445108	     -7.21393002	     22.38428704	     81.47692873	     75.90320374	      0.00000000	      0.00000000	     80.05641007	    -15.17116314	     36.42230579	     79.58127868	     70.13485095	      0.00000000	      0.00000000
      2.75000000	    -20.59754810	     -5.20649865	     -0.14471822	     -0.31861004	      0.81728832	     -0.97910898	     26.90537101	     -7.01454995	      9.65123378	     89.85371131	      1.56824311	    -21.49241671	      0.00000000	      0.00000000	     62.26917428	     -6.27851524	     -3.17717891	     71.57898448	      1.24928895	     16.95916441	      0.00000000	      0.00000000	    -10.39237371	     -7.13998109	      9.42516734	     72.86105038	     -7.24585784	     22.30926127	     81.46288136	     77.83960223	      0.00000000	      0.00000000	     80.10451856	    -15.10636937	     36.23352229	     79.49980774	     72.14476372	      0.00000000	      0.00000000
      2.75500000	    -20.68391017	     -5.24285591	     -0.18248366	     -0.31897202	      0.81630929	     -0.97891899	     27.02631089	     -6.87939063	      9.71871049	     89.99631783	      1.57073206	    -21.21811122	      0.00000000	      0.00000000	     62.54133069	     -6.34635397	     -3.12814556	     71.84332663	      1.25390260	     16.85989535	      0.00000000	      0.00000000	    -10.42866533	     -7.10078917	      9.46775779	     72.99967905	     -7.28124863	     22.48673798	     81.41678313	     76.35399566	      0.00000000	      0.00000000	     80.16576418	    -15.14305835	     36.34726414	     79.62119079	     70.05946905	      0.00000000	      0.00000000
      2.76000000	    -20.72311955	     -5.19484255	     -0.20824182	     -0.31940586	      0.81535154	     -0.97875856	     27.07989661	     -6.89410664	      9.79505792	     90.01716696	      1.57109595	    -21.27834162	      0.00000000	      0.00000000	     62.70469153	     -6.35167079	     -3.17290291	     72.02185281	      1.25701846	     16.94594664	      0.00000000	      0.00000000	    -10.50024528	     -7.16998050	      9.46277045	     73.17152251	     -7.25937327	     22.67191386	     81.38184009	     74.34964448	      0.00000000	      0.00000000	     80.27407017	    -15.18580213	     36.50539837	     79.65411600	     68.22490164	      0.00000000	      0.00000000
      2.76500000	    -20.81177201	     -5.20515539	     -0.19758490	     -0.31968798	      0.81443450	     -0.97862399	     27.16294068	     -6.84140742	      9.81214665	     90.06639704	      1.57195517	    -21.20011736	      0.00000000	      0.00000000	     62.91694836	     -6.36154707	     -3.17527398	     72.19984581	      1.26012503	     17.16952438	      0.00000000	      0.00000000	    -10.52711274	     -7.16154154	      9.46003785	     73.20316242	     -7.25102237	     22.68751802	     81.42630908	     72.39981774	      0.00000000	      0.00000000	     80.30755614	    -15.18730098	     36.57116919	     79.73740729	     66.61665709	      0.00000000	      0.00000000
